<svg id="Layer_1" data-name="Layer 1" xmlns="http://www.w3.org/2000/svg" viewBox="0 0 198.42 85.04"><defs><style>.cls-1{fill:#005a99;}.cls-2{fill:#fff;}.cls-3{fill:#b0dff5;}</style></defs><rect class="cls-1" width="198.42" height="85.04"/><path class="cls-2" d="M134.42,59.76c-1.27,1-4.71-2.28-5-2.71h0c-.31-.42-2.37-4.72-1-5.61,1.87-1.25,6.54,1.32,6.68,1.5s1.13,5.43-.63,6.82m3.76-9.09h0c-4.85-3.3-8.18-4-10.57-1.76s-.94,6.05.93,8.76,5.34,5.09,8.05,3.6c2.87-1.57,3.24-5,1.59-10.6"/><path class="cls-3" d="M142.52,47.52h0c-4.29-2-7-1.89-8.73-1.58-.14,0-.25.09-.21.14a.54.54,0,0,0,.22.1,20.15,20.15,0,0,1,6,3.32h0a20.39,20.39,0,0,1,1.31,6.73c0,.16,0,.2,0,.24s.13,0,.2-.16c.82-1.52,1.78-4.09,1.19-8.79h0"/><path class="cls-2" d="M146,45h0a9.36,9.36,0,0,0-6.73-.65c-.17,0-.25.1-.22.14s.08.06.19.09a16.68,16.68,0,0,1,4.87,1.79,16.94,16.94,0,0,1,.2,5.18c0,.11,0,.17,0,.21s.1,0,.2-.17A9.35,9.35,0,0,0,146,45Z"/><path class="cls-2" d="M161.16,62.1c.57,1.51-3.62,3.77-4.13,3.93s-5.22.8-5.65-.75c-.61-2.17,3.28-5.81,3.49-5.89s5.52.6,6.29,2.71m-7.48-6.39h0c-4.64,3.59-6.34,6.54-4.94,9.51C150.06,68,154.2,68,157.36,67h0c3.12-1.09,6.48-3.51,5.91-6.54-.61-3.22-3.73-4.62-9.59-4.79"/><path class="cls-3" d="M152,50.61h0c-3.24,3.46-4,6.1-4.2,7.81,0,.14,0,.27.07.24s.07,0,.17-.17a20.27,20.27,0,0,1,5-4.68h0a20.56,20.56,0,0,1,6.79.84c.16.05.2.06.24.05s0-.14-.09-.25c-1.19-1.24-3.33-3-8-3.84Z"/><path class="cls-2" d="M150.69,46.51h0A9.33,9.33,0,0,0,148,52.7c0,.19,0,.27.07.26s.07-.06.14-.16a17.06,17.06,0,0,1,3.2-4.08,17.53,17.53,0,0,1,5,1.42c.11,0,.17.06.2,0s0-.1-.09-.24a9.37,9.37,0,0,0-5.82-3.43h0"/><path class="cls-2" d="M171.65,37.38c1.61-.06,2.47,4.62,2.46,5.14h0c0,.53-.86,5.21-2.47,5.14-2.25-.09-4.51-4.91-4.52-5.14s2.27-5.06,4.52-5.15m-8.39,5.14h0c2,5.52,4.27,8,7.52,7.63,3.06-.39,4.32-4.33,4.4-7.63h0c-.08-3.29-1.34-7.24-4.4-7.63-3.25-.42-5.54,2.11-7.52,7.63"/><path class="cls-3" d="M157.9,42.53h0c2.28,4.15,4.57,5.65,6.13,6.41.13.06.25.07.25,0s0-.08-.11-.22a20.06,20.06,0,0,1-2.9-6.2h0a20.16,20.16,0,0,1,2.9-6.2c.09-.13.11-.17.11-.21s-.12,0-.26,0c-1.55.76-3.84,2.26-6.12,6.41h0"/><path class="cls-2" d="M153.59,42.53h0A9.3,9.3,0,0,0,158.65,47c.16.07.26.06.26,0s0-.1-.1-.19a16.82,16.82,0,0,1-2.9-4.31,17.16,17.16,0,0,1,2.9-4.3c.07-.09.1-.14.1-.18s-.09,0-.26,0a9.36,9.36,0,0,0-5.06,4.47Z"/><path class="cls-2" d="M151.38,19.77c.44-1.55,5.16-.92,5.66-.76h0c.5.17,4.69,2.43,4.13,3.94-.78,2.11-6.07,2.77-6.29,2.71s-4.11-3.73-3.5-5.89m2.3,9.57h0c5.87-.18,9-1.57,9.59-4.79.58-3-2.79-5.45-5.9-6.54h0c-3.16-.94-7.3-1-8.62,1.82-1.4,3,.3,5.92,4.94,9.51"/><path class="cls-3" d="M152,34.44h0c4.65-.89,6.79-2.6,8-3.85.09-.1.15-.22.08-.24s-.08,0-.24,0a20.3,20.3,0,0,1-6.79.84h0a20.64,20.64,0,0,1-5-4.68c-.1-.13-.12-.16-.17-.18s-.08.11-.07.25c.24,1.71,1,4.35,4.2,7.81h0"/><path class="cls-2" d="M150.69,38.54h0a9.37,9.37,0,0,0,5.82-3.43c.11-.14.14-.23.1-.24s-.1,0-.21,0a17.44,17.44,0,0,1-5,1.42,17.17,17.17,0,0,1-3.2-4.09c-.06-.09-.1-.13-.14-.14s-.08.06-.07.25a9.38,9.38,0,0,0,2.69,6.19h0"/><path class="cls-2" d="M128.37,33.61c-1.34-.9.72-5.19,1-5.61h0c.31-.42,3.76-3.71,5-2.71,1.76,1.39.76,6.63.63,6.82s-4.81,2.76-6.68,1.51m9.81.77h0c1.65-5.62,1.28-9-1.59-10.6-2.71-1.48-6.05,1-8.05,3.6s-3.18,6.65-.93,8.76,5.73,1.55,10.57-1.75"/><path class="cls-3" d="M142.52,37.53h0c.59-4.71-.37-7.27-1.19-8.79-.07-.13-.16-.21-.2-.16s0,.08,0,.24a20.33,20.33,0,0,1-1.3,6.72h0a20.13,20.13,0,0,1-6,3.31c-.15.06-.19.07-.22.11s.08.11.22.14c1.7.31,4.43.43,8.72-1.58h0"/><path class="cls-2" d="M146,40.06h0a9.35,9.35,0,0,0-1.47-6.59c-.09-.15-.17-.21-.2-.17a.37.37,0,0,0,0,.21,17,17,0,0,1-.2,5.18,16.85,16.85,0,0,1-4.87,1.79c-.1,0-.16.05-.18.09s0,.09.21.14a9.46,9.46,0,0,0,6.73-.65Z"/><path class="cls-2" d="M90.48,56.47v-25H84.71V61.85h21.75V56.47ZM64.7,50.27c-1.27-3-8-18.79-8-18.79H50.74l13,30.37h2.05l12.8-30.37H72.67l-8,18.79"/><path class="cls-2" d="M42.28,49.5H34.57c.66-1.56,2.79-6.6,3.73-8.84,1,2.22,3.26,7.26,4,8.84m-2-18h-4L23.35,61.85h6l3-7.05H44.66l3.17,7.05h6Z"/></svg>